<svg width="19" height="18" viewBox="0 0 19 18" fill="none" xmlns="http://www.w3.org/2000/svg">
<path d="M12.3279 3.00131C13.9592 3.01039 14.8426 3.08273 15.4189 3.65902C16.0779 4.31803 16.0779 5.37869 16.0779 7.50001V12C16.0779 14.1213 16.0779 15.182 15.4189 15.841C14.7599 16.5 13.6992 16.5 11.5779 16.5H7.07791C4.95659 16.5 3.89593 16.5 3.23692 15.841C2.57791 15.182 2.57791 14.1213 2.57791 12V7.50001C2.57791 5.37869 2.57791 4.31803 3.23692 3.65902C3.81321 3.08273 4.69664 3.01039 6.32791 3.00131" stroke="#A2845E" stroke-width="1.125"/>
<path d="M6.32791 10.5H12.3279" stroke="#A2845E" stroke-width="1.125" stroke-linecap="round"/>
<path d="M5.57791 7.875H13.0779" stroke="#A2845E" stroke-width="1.125" stroke-linecap="round"/>
<path d="M7.07791 13.125H11.5779" stroke="#A2845E" stroke-width="1.125" stroke-linecap="round"/>
<path d="M6.32791 2.625C6.32791 2.00368 6.83159 1.5 7.45291 1.5H11.2029C11.8242 1.5 12.3279 2.00368 12.3279 2.625V3.375C12.3279 3.99632 11.8242 4.5 11.2029 4.5H7.45291C6.83159 4.5 6.32791 3.99632 6.32791 3.375V2.625Z" stroke="#A2845E" stroke-width="1.125"/>
</svg>
