<svg width="28" height="22" viewBox="0 0 28 22" fill="none" xmlns="http://www.w3.org/2000/svg">
<path d="M9.75 17.75H4.5C3.08579 17.75 2.37868 17.75 1.93934 17.3107C1.5 16.8713 1.5 16.1642 1.5 14.75C1.5 13.3358 1.5 12.6287 1.93934 12.1893C2.37868 11.75 3.08579 11.75 4.5 11.75H13.5C14.9142 11.75 15.6213 11.75 16.0607 12.1893C16.5 12.6287 16.5 13.3358 16.5 14.75C16.5 16.1642 16.5 16.8713 16.0607 17.3107C15.6213 17.75 14.9142 17.75 13.5 17.75H12.75" stroke="#1C274C" stroke-width="1.125" stroke-linecap="round"/>
<path d="M8.25 3.5H13.5C14.9142 3.5 15.6213 3.5 16.0607 3.93934C16.5 4.37868 16.5 5.08579 16.5 6.5C16.5 7.91421 16.5 8.62132 16.0607 9.06066C15.6213 9.5 14.9142 9.5 13.5 9.5H4.5C3.08579 9.5 2.37868 9.5 1.93934 9.06066C1.5 8.62132 1.5 7.91421 1.5 6.5C1.5 5.08579 1.5 4.37868 1.93934 3.93934C2.37868 3.5 3.08579 3.5 4.5 3.5H5.25" stroke="#1C274C" stroke-width="1.125" stroke-linecap="round"/>
<path d="M8.25 6.5H13.5" stroke="#1C274C" stroke-width="1.125" stroke-linecap="round"/>
<path d="M4.5 6.5H6" stroke="#1C274C" stroke-width="1.125" stroke-linecap="round"/>
<path d="M8.25 14.75H13.5" stroke="#1C274C" stroke-width="1.125" stroke-linecap="round"/>
<path d="M4.5 14.75H6" stroke="#1C274C" stroke-width="1.125" stroke-linecap="round"/>
<rect x="6" width="22" height="22" rx="11" fill="#A2845E" fill-opacity="0.5"/>
</svg>
