<svg width="19" height="18" viewBox="0 0 19 18" fill="none" xmlns="http://www.w3.org/2000/svg">
<path d="M9.87208 16.5C6.33654 16.5 4.56878 16.5 3.47043 15.4017C2.37208 14.3033 2.37208 12.5355 2.37208 9C2.37208 5.46447 2.37208 3.6967 3.47043 2.59835C4.56878 1.5 6.33654 1.5 9.87208 1.5C13.4076 1.5 15.1754 1.5 16.2737 2.59835C17.3721 3.6967 17.3721 5.46447 17.3721 9C17.3721 12.5355 17.3721 14.3033 16.2737 15.4017C15.1754 16.5 13.4076 16.5 9.87208 16.5Z" stroke="#6D7076" stroke-width="1.125"/>
<path d="M4.99708 6.56791C4.99708 5.21869 6.17233 4.12492 7.62208 4.12492C9.07183 4.12492 10.2471 5.21869 10.2471 6.56791C10.2471 7.90656 9.40927 9.46865 8.1021 10.0273C7.79738 10.1575 7.44677 10.1575 7.14205 10.0273C5.83489 9.46865 4.99708 7.90656 4.99708 6.56791Z" stroke="#6D7076" stroke-width="1.125"/>
<path d="M11.3724 10.4999L16.2474 15.3749M11.3724 10.4999L5.66798 16.2043M11.3724 10.4999L17.0775 4.7948" stroke="#6D7076" stroke-width="1.125" stroke-linecap="round"/>
<path d="M8.37208 6.75C8.37208 7.16421 8.03629 7.5 7.62208 7.5C7.20786 7.5 6.87208 7.16421 6.87208 6.75C6.87208 6.33579 7.20786 6 7.62208 6C8.03629 6 8.37208 6.33579 8.37208 6.75Z" fill="#6D7076"/>
</svg>
